<?xml version="1.0" encoding="UTF-8" standalone="no"?>
<!-- Created with Inkscape (http://www.inkscape.org/) -->

<svg
   xmlns:dc="http://purl.org/dc/elements/1.1/"
   xmlns:cc="http://creativecommons.org/ns#"
   xmlns:rdf="http://www.w3.org/1999/02/22-rdf-syntax-ns#"
   xmlns:svg="http://www.w3.org/2000/svg"
   xmlns="http://www.w3.org/2000/svg"
   xmlns:sodipodi="http://sodipodi.sourceforge.net/DTD/sodipodi-0.dtd"
   xmlns:inkscape="http://www.inkscape.org/namespaces/inkscape"
   width="20"
   height="15"
   viewBox="0 0 5.2916665 3.9687501"
   version="1.1"
   id="svg8"
   inkscape:version="0.92.2 2405546, 2018-03-11"
   sodipodi:docname="butterfly-base.svg">
  <defs
     id="defs2" />
  <sodipodi:namedview
     id="base"
     pagecolor="#ffffff"
     bordercolor="#666666"
     borderopacity="1.0"
     inkscape:pageopacity="0.0"
     inkscape:pageshadow="2"
     inkscape:zoom="11.2"
     inkscape:cx="39.68702"
     inkscape:cy="12.042562"
     inkscape:document-units="mm"
     inkscape:current-layer="layer1"
     showgrid="false"
     units="px"
     inkscape:window-width="1366"
     inkscape:window-height="716"
     inkscape:window-x="0"
     inkscape:window-y="0"
     inkscape:window-maximized="1" />
  <metadata
     id="metadata5">
    <rdf:RDF>
      <cc:Work
         rdf:about="">
        <dc:format>image/svg+xml</dc:format>
        <dc:type
           rdf:resource="http://purl.org/dc/dcmitype/StillImage" />
        <dc:title></dc:title>
      </cc:Work>
    </rdf:RDF>
  </metadata>
  <g
     inkscape:label="Camada 1"
     inkscape:groupmode="layer"
     id="layer1"
     transform="translate(0,-293.03124)">
    <path
       id="path21"
       transform="matrix(0.26458333,0,0,0.26458333,0,293.03124)"
       style="fill:#696969;stroke-width:0.05416573"
       d="M 8.4179688,1.0917969 C 8.304824,1.1107306 8.2246094,1.202777 8.2246094,1.3613281 c 0,0.1625197 0.071564,0.2333147 0.2851562,0.2832031 0.4287942,0.099893 1.3150416,1.9316363 1.6015624,3.3085938 0.09146,0.4397102 0.116389,1.3031212 0.03906,1.3496094 -0.01156,0.00698 -0.03308,-0.00646 -0.05274,-0.015625 2.2e-5,0.029858 0.0081,0.048757 0.0059,0.082031 -0.007,0.02264 -0.01357,0.039225 -0.01953,0.060547 6.13e-4,0.022973 0.0013,0.045393 0.002,0.068359 0.007,0.2520945 0.005,0.5038418 0.0039,0.7558593 3.33e-4,0.2054627 2.2e-5,0.4116374 0,0.6171876 0.0053,0.00927 0.0087,0.010475 0.01172,0.017578 0.02869,0.061606 0.06203,0.1233114 0.07813,0.1894531 0.04213,0.1727244 0.0125,0.3535989 -0.002,0.5273438 -0.0093,0.165542 0.0018,0.3321634 0.002,0.4980468 -7.68e-4,0.081587 3.22e-4,0.1628348 0,0.2441406 0.0061,0.02822 0.01376,0.047529 0.01953,0.076172 0.06487,0.3216756 0.227008,0.6542969 0.318359,0.6542969 0.110553,0 0.235855,-0.225485 0.404297,-0.7246094 0.09343,-0.2768669 0.167242,-0.4436478 0.240234,-0.5078125 8.3e-5,-0.0091 -8.9e-5,-0.018249 0,-0.027344 0.0016,-0.1810394 -0.01107,-0.362005 -0.0039,-0.5429688 0.0038,-0.029568 0.01287,-0.096617 0.01953,-0.1308594 -0.0083,-0.03253 -0.01033,-0.045886 -0.03906,-0.1484374 -0.02234,-0.090331 -0.04729,-0.1800199 -0.06641,-0.2714844 -0.02589,-0.1235906 0.01391,-0.261881 0.002,-0.3867188 0.0056,-0.216189 -0.04001,-0.4279765 0.0098,-0.6425781 0.01043,-0.014477 0.02057,-0.028668 0.03125,-0.042969 -0.049,-0.1152127 -0.114356,-0.258069 -0.130859,-0.2910157 -0.04931,-0.098616 -0.06732,-0.186296 -0.08203,-0.2714843 -0.05492,-0.043373 -0.105822,-0.095945 -0.136719,-0.1679688 -0.06949,-0.1624063 -0.073,-0.2778827 -0.02344,-0.7226562 0.169645,-1.522167 0.590647,-2.6193581 1.24414,-3.2363282 0.254317,-0.2401512 0.34961,-0.3663248 0.34961,-0.46875 -1e-6,-0.3347149 -0.306751,-0.1916478 -0.707032,0.3300782 C 11.126049,2.4772563 10.764641,3.349552 10.59375,4.3125 c -0.05093,0.286715 -0.108913,0.5214844 -0.128906,0.5214844 -0.01999,0 -0.09161,-0.221638 -0.160156,-0.4941406 C 9.991487,3.0958123 9.3986678,1.877127 8.8085938,1.2636719 8.6771883,1.1270419 8.5311124,1.0728631 8.4179688,1.0917969 Z M 5.0234375,1.4160156 c 0.057264,0.058961 0.127418,0.101635 0.1933594,0.1503906 0.072973,0.054047 0.145649,0.1082147 0.21875,0.1621094 C 5.4480239,1.7114606 5.456268,1.6966435 5.46875,1.6796875 5.3517712,1.601724 5.2377331,1.5420514 5.1210938,1.46875 5.1151138,1.46533 5.1122436,1.4643844 5.1035156,1.4589844 5.0640536,1.4345904 5.0021143,1.3940426 5.0234375,1.4160156 Z M 11.25,6.4589844 c -0.01603,0.011399 -0.04578,0.033512 -0.05664,0.058594 -0.0053,0.012244 -0.0053,0.026464 -0.0098,0.039063 0.02269,-0.030524 0.04497,-0.060751 0.06641,-0.091797 z m -0.105469,0.2578125 c -0.0012,0.00861 -0.0049,0.016785 -0.0059,0.025391 -0.0013,0.011339 0.02946,0.032823 0.02734,0.021484 -0.0021,-0.011964 -0.01641,-0.031313 -0.02149,-0.046875 z" />
  </g>
</svg>
