<?xml version="1.0" encoding="UTF-8" standalone="no"?>
<!-- Created with Inkscape (http://www.inkscape.org/) -->

<svg
   xmlns:dc="http://purl.org/dc/elements/1.1/"
   xmlns:cc="http://creativecommons.org/ns#"
   xmlns:rdf="http://www.w3.org/1999/02/22-rdf-syntax-ns#"
   xmlns:svg="http://www.w3.org/2000/svg"
   xmlns="http://www.w3.org/2000/svg"
   xmlns:sodipodi="http://sodipodi.sourceforge.net/DTD/sodipodi-0.dtd"
   xmlns:inkscape="http://www.inkscape.org/namespaces/inkscape"
   width="20"
   height="15"
   viewBox="0 0 5.2916665 3.9687501"
   version="1.1"
   id="svg8"
   inkscape:version="0.92.2 2405546, 2018-03-11"
   sodipodi:docname="butterfly.svg">
  <defs
     id="defs2" />
  <sodipodi:namedview
     id="base"
     pagecolor="#ffffff"
     bordercolor="#666666"
     borderopacity="1.0"
     inkscape:pageopacity="0.0"
     inkscape:pageshadow="2"
     inkscape:zoom="11.2"
     inkscape:cx="39.68702"
     inkscape:cy="12.042562"
     inkscape:document-units="mm"
     inkscape:current-layer="layer1"
     showgrid="false"
     units="px"
     inkscape:window-width="1366"
     inkscape:window-height="716"
     inkscape:window-x="0"
     inkscape:window-y="0"
     inkscape:window-maximized="1" />
  <metadata
     id="metadata5">
    <rdf:RDF>
      <cc:Work
         rdf:about="">
        <dc:format>image/svg+xml</dc:format>
        <dc:type
           rdf:resource="http://purl.org/dc/dcmitype/StillImage" />
        <dc:title />
      </cc:Work>
    </rdf:RDF>
  </metadata>
  <g
     inkscape:label="Camada 1"
     inkscape:groupmode="layer"
     id="layer1"
     transform="translate(0,-293.03124)">
    <path
       id="path21"
       transform="matrix(0.26458333,0,0,0.26458333,0,293.03124)"
       style="fill:#ff0000;stroke-width:0.05416573"
       d="M 1.2070312,0 C 0.81833269,-0.00226772 0.69629883,0.018922 0.47265625,0.12890625 0.1190904,0.30268893 0,0.51760338 0,0.984375 0,1.4339498 0.09314,1.7319699 0.52539062,2.6738281 0.71798367,3.0934691 1.0250291,3.8665935 1.2089844,4.390625 c 0.5373761,1.531011 0.8945178,2.0648386 1.6269531,2.4375 0.3937812,0.2010709 0.6732672,0.2706831 1.46875,0.3632812 1.2388191,0.144 1.3182803,0.2720533 0.3828125,0.6152344 C 3.5875315,8.2099918 3.015625,8.7794398 3.015625,9.46875 c 0,0.441222 0.4224279,2.01323 0.7734375,2.875 0.5566968,1.366791 1.1763389,2.240165 1.8027344,2.541016 v -0.002 c 0.322837,0.155075 0.7098694,0.15602 1.0390625,0.002 0.8493513,-0.398552 1.8700059,-2.069864 2.1347656,-3.494141 0.032825,-0.176617 0.1123006,-0.634939 0.1757812,-1.017578 0.222751,-1.3425642 0.5644652,-2.0982001 0.8945313,-1.9746095 0.092251,0.034545 0.2572505,0.499356 0.3632815,1.0253906 0.06487,0.3216756 0.227008,0.6542969 0.318359,0.6542969 0.110553,0 0.235855,-0.225485 0.404297,-0.7246094 0.277513,-0.8223874 0.389677,-0.7528911 0.783203,0.484375 0.865729,2.7217514 1.790054,4.2847784 2.808594,4.7500004 0.632121,0.288831 0.955949,0.207524 1.550781,-0.384766 0.864533,-0.860787 1.655397,-2.44022 1.886719,-3.765625 0.08251,-0.4725165 0.08363,-0.5507099 0.0078,-0.8398438 C 17.744917,8.7819967 16.986893,8.1689994 15.925781,7.9550781 15.674569,7.9048104 15.441707,7.8234518 15.378906,7.765625 15.275294,7.669625 15.274518,7.6614669 15.365234,7.5957031 15.42377,7.5529945 15.701926,7.5149911 16.078125,7.4960938 16.753618,7.463741 17.214587,7.3378942 17.818359,7.0234375 18.200827,6.8244454 18.65158,6.4145118 18.802734,6.125 18.926035,5.8891197 19.912256,2.0084399 19.988281,1.4609375 20.056534,0.96929659 19.816062,0.49781914 19.392578,0.29296875 L 19.130859,0.16601562 18.515625,0.25195312 C 17.654141,0.37286021 17.019572,0.56256865 16.255859,0.92578125 15.366142,1.3491639 14.736397,1.7954193 13.951172,2.5605469 13.164117,3.3274886 12.710205,3.9052642 11.90625,5.15625 c -0.330805,0.5147339 -0.638191,0.9579183 -0.681641,0.984375 -0.10528,0.065133 -0.243099,0.027636 -0.347656,-0.068359 -0.232279,0.1318217 -0.477573,0.1582078 -0.703125,0.1210938 -0.0061,0.04528 -0.01104,0.1019293 -0.02344,0.109375 C 10.115743,6.3236442 10.03233,6.2504981 9.9023438,6.0976562 9.6791967,5.9809121 9.5028935,5.7867664 9.4453125,5.5019531 9.4368003,5.4902866 9.4344743,5.4885077 9.4257812,5.4765625 9.3731378,5.4256789 9.3314713,5.3702265 9.2949219,5.3066406 8.6848923,4.4657784 8.2631342,3.9725392 7.65625,3.40625 5.4574962,1.3544579 2.9077199,0.00755906 1.2070312,0 Z M 12.271484,1.3300781 c -0.01356,0.003 -0.03002,0.0048 -0.0332,0.017578 -0.01034,0.039893 -0.0099,0.082148 -0.01563,0.1230469 0.03127,-0.018741 0.05627,-0.025468 0.08984,-0.048828 -0.0091,-0.03238 -0.01167,-0.077489 -0.03125,-0.091797 -0.0023,-0.00165 -0.0074,0.00141 -0.0098,0 z" />
  </g>
</svg>
