<?xml version="1.0" encoding="UTF-8" standalone="no"?>
<!-- Created with Inkscape (http://www.inkscape.org/) -->

<svg
   xmlns:dc="http://purl.org/dc/elements/1.1/"
   xmlns:cc="http://creativecommons.org/ns#"
   xmlns:rdf="http://www.w3.org/1999/02/22-rdf-syntax-ns#"
   xmlns:svg="http://www.w3.org/2000/svg"
   xmlns="http://www.w3.org/2000/svg"
   xmlns:sodipodi="http://sodipodi.sourceforge.net/DTD/sodipodi-0.dtd"
   xmlns:inkscape="http://www.inkscape.org/namespaces/inkscape"
   width="125"
   height="50"
   viewBox="0 0 33.072916 13.229167"
   version="1.1"
   id="svg8"
   inkscape:version="0.92.2 2405546, 2018-03-11"
   sodipodi:docname="logo.svg">
  <defs
     id="defs2" />
  <sodipodi:namedview
     id="base"
     pagecolor="#ffffff"
     bordercolor="#666666"
     borderopacity="1.0"
     inkscape:pageopacity="0.0"
     inkscape:pageshadow="2"
     inkscape:zoom="3.959798"
     inkscape:cx="137.77775"
     inkscape:cy="30.724151"
     inkscape:document-units="mm"
     inkscape:current-layer="layer1"
     showgrid="false"
     inkscape:window-width="1366"
     inkscape:window-height="716"
     inkscape:window-x="0"
     inkscape:window-y="0"
     inkscape:window-maximized="1"
     units="px" />
  <metadata
     id="metadata5">
    <rdf:RDF>
      <cc:Work
         rdf:about="">
        <dc:format>image/svg+xml</dc:format>
        <dc:type
           rdf:resource="http://purl.org/dc/dcmitype/StillImage" />
        <dc:title></dc:title>
      </cc:Work>
    </rdf:RDF>
  </metadata>
  <g
     inkscape:label="Camada 1"
     inkscape:groupmode="layer"
     id="layer1"
     transform="translate(0,-283.77081)">
    <g
       id="g3889"
       transform="matrix(0.1606305,0,0,0.17150892,3.8998597,266.33648)"
       style="fill:#696969">
      <path
         inkscape:connector-curvature="0"
         d="m 17.659719,143.64701 c -2.445,-2.46586 -0.511625,-5.95479 3.299815,-5.95479 3.059599,0 4.526351,4.02616 2.230208,6.12185 -1.499131,1.36828 -4.085137,1.29014 -5.530023,-0.16706 z m 152.919591,21.20018 c -0.24863,-1.13466 -1.10251,-4.05645 -1.89751,-6.49289 -1.36498,-4.18324 -2.19913,-5.20503 -3.1286,-3.8324 -0.82563,1.21928 -3.81692,11.40685 -3.49074,11.88856 0.18611,0.27484 2.28025,0.49973 4.65365,0.49973 h 4.31526 z M 155.203,177.34107 c 0,-1.78193 6.09826,-21.74597 7.6112,-24.917 2.81428,-5.89856 9.06614,-4.74457 11.79586,2.17732 2.34039,5.93473 7.55671,22.92327 7.2002,23.44975 -0.20343,0.30043 -1.75369,0.54623 -3.445,0.54623 h -3.07513 l -1.68476,-4.38269 -1.68475,-4.3827 h -5.6437 -5.64369 l -1.47019,4.21341 c -0.9825,2.81575 -1.88314,4.28536 -2.71512,4.4303 -0.86304,0.15036 -1.24492,-0.19769 -1.24492,-1.13462 z m -29.54322,0.46746 c -0.20068,-0.47733 -0.27815,-6.99612 -0.17212,-14.48617 l 0.19276,-13.61832 4.97972,-0.20806 c 2.73884,-0.11444 7.04487,-0.0118 9.56895,0.22798 3.9173,0.37221 4.93288,0.74968 6.93604,2.57797 1.98573,1.8124 2.34677,2.6091 2.34677,5.17859 0,2.44959 -0.37956,3.38308 -1.96316,4.82846 -1.07973,0.98548 -2.44026,1.94313 -3.0234,2.12812 -0.85022,0.26972 -0.39087,1.57862 2.31885,6.60761 1.85851,3.4492 3.3791,6.55958 3.3791,6.91197 0,0.35238 -1.70836,0.64069 -3.79636,0.64069 h -3.79635 l -3.32576,-6.6552 c -1.82918,-3.66037 -3.32206,-6.83889 -3.31751,-7.0634 0.005,-0.2245 0.98135,-0.77608 2.17073,-1.22574 3.90571,-1.47658 5.28627,-4.97445 3.43053,-8.69181 -1.27304,-2.55014 -7.35985,-3.97941 -9.04671,-2.1243 -0.49168,0.54073 -0.8544,5.42551 -0.97634,13.14809 l -0.19399,12.28772 -2.67344,0.20182 c -1.74304,0.1316 -2.8004,-0.10017 -3.03831,-0.66606 z m -54.046295,0.0149 c -0.189249,-0.46708 -0.426427,-6.40066 -0.527029,-13.18571 l -0.18292,-12.33649 -2.845546,-0.32464 c -1.897038,-0.21643 -2.845557,-0.64929 -2.845557,-1.29858 0,-0.81933 1.580869,-0.97394 9.959426,-0.97394 8.378569,0 9.959436,0.15461 9.959436,0.97394 0,0.67334 -0.988037,1.07414 -3.201244,1.29858 l -3.201245,0.32464 -0.355702,12.98576 -0.355688,12.98578 -3.029906,0.19994 c -2.01176,0.13276 -3.145535,-0.0854 -3.374025,-0.64929 z m -54.101268,-0.0545 c -0.19156,-0.45562 -0.261548,-6.95661 -0.155525,-14.44666 l 0.19277,-13.61829 2.668952,-0.20158 c 2.32136,-0.17533 2.761436,0.0204 3.379096,1.50316 0.759633,1.8236 1.000853,24.84621 0.278332,26.56471 -0.535378,1.27337 -5.842127,1.43903 -6.363625,0.19866 z M -4.4962865,156.236 c 3.81556597,-1.45508 5.45616188,-4.40947 5.15567488,-9.28444 -0.40555397,-6.57978 -3.83838688,-9.50652 -11.20974838,-9.55712 l -3.912635,-0.0268 -0.198857,9.05876 c -0.109393,4.98233 -0.03945,9.43806 0.155525,9.90165 0.485428,1.15459 6.8956875,1.09568 10.0100405,-0.092 z m -19.5704335,0.31656 v -22.10678 h 11.40505 c 12.15141847,0 14.9251484,0.5198 18.3549085,3.43975 5.4414245,4.63261 5.8694845,13.07609 0.923447,18.21554 -2.242199,2.3299 -5.4413272,3.28644 -13.254412,3.96313 l -7.8252685,0.67774 -0.355688,8.7654 -0.355702,8.76539 -4.44616,0.19331 -4.446175,0.1933 z m 121.904823,21.59529 c -1.227794,-0.55868 -2.916114,-2.12614 -3.75181,-3.48327 -1.41386,-2.29604 -1.505907,-3.24902 -1.324584,-13.71401 l 0.194863,-11.24649 h 2.845545 2.845557 l 0.381088,10.71327 c 0.390344,10.97367 0.885512,12.99185 3.501088,14.26946 2.16851,1.05924 6.12829,0.77272 7.95478,-0.57559 1.62423,-1.19901 1.69111,-1.62046 2.03512,-12.82345 0.33907,-11.04261 0.42214,-11.58369 1.77847,-11.58369 1.35969,0 1.43101,0.48934 1.60839,11.03791 0.20955,12.46075 -0.31098,14.33222 -4.73699,17.03088 -2.92676,1.78453 -9.80843,1.9781 -13.331517,0.37501 z m -45.106375,-0.0374 c -0.415174,-0.62494 -3.727236,-5.79532 -7.360135,-11.48974 -3.6329,-5.69441 -6.969694,-10.46435 -7.415093,-10.59986 -0.57986,-0.17642 -0.865161,2.94795 -1.004702,11.00277 -0.164346,9.48733 -0.361992,11.24915 -1.261952,11.24915 -0.908334,0 -1.095732,-2.01866 -1.259679,-13.56905 -0.212155,-14.94675 0.05264,-15.97357 4.119549,-15.97357 3.105086,0 5.122195,2.03087 9.944676,10.01251 2.498388,4.13505 4.951544,7.51828 5.451467,7.51828 0.679737,0 0.959156,-2.0876 1.10805,-8.27843 0.164624,-6.84498 0.383871,-8.27843 1.266176,-8.27843 0.90727,0 1.097269,1.99352 1.26856,13.31041 0.110839,7.32073 0.02468,13.96782 -0.191402,14.77132 -0.484073,1.8 -3.543915,2.01292 -4.665515,0.32464 z"
         style="fill:#696969;stroke-width:0.67962915"
         id="path3832" />
      <path
         inkscape:connector-curvature="0"
         d="m 179.53161,117.41177 c 0,-0.34243 0.26455,-0.4591 0.5879,-0.25925 0.32335,0.19984 0.58791,0.48001 0.58791,0.6226 0,0.14259 -0.26456,0.25926 -0.58791,0.25926 -0.32335,0 -0.5879,-0.28017 -0.5879,-0.62261 z m -6.41858,16.17716 c 1.86854,-0.96626 1.85507,-1.07656 -0.51747,-4.2373 -2.04218,-2.72062 -2.80944,-2.45907 -2.58698,0.88186 0.31081,4.668 0.39347,4.75734 3.10445,3.35544 z m -3.87009,5.4632 c -0.19112,-1.05089 -0.40153,-4.65391 -0.46757,-8.00672 -0.13131,-6.66649 0.33402,-7.68375 3.1694,-6.92849 1.3951,0.37161 9.45533,10.04426 9.82696,11.7928 0.10035,0.47213 -0.32402,1.12946 -0.94303,1.46075 -0.91535,0.48988 -1.43643,0.27776 -2.79105,-1.13615 -1.87652,-1.95867 -3.0796,-2.13978 -5.59014,-0.84153 -1.47936,0.76501 -1.73454,1.24071 -1.73454,3.2335 0,2.81346 -0.98396,3.09849 -1.47003,0.42584 z m -8.19978,4.60655 c 1.11793,-0.81745 1.11234,-0.90384 -0.32856,-5.07638 -1.60359,-4.64365 -3.19134,-7.61392 -4.07001,-7.61392 -0.31007,0 -1.30004,0.63332 -2.19994,1.40738 -4.71473,4.05543 1.63475,14.91252 6.59851,11.28292 z m -7.13773,1.48362 c -3.14219,-1.91609 -4.35717,-3.98316 -4.35717,-7.41297 0,-3.68135 1.18324,-5.46759 4.66055,-7.03564 1.31689,-0.59384 2.39436,-1.43032 2.39436,-1.85886 0,-0.42853 -0.64308,-2.48764 -1.42906,-4.57579 -1.20189,-3.19313 -1.29983,-3.90387 -0.61614,-4.47128 1.97839,-1.64193 2.78792,-0.40953 7.15112,10.88667 2.37302,6.14364 4.24172,11.5671 4.15269,12.05212 -0.17719,0.96532 -6.31972,3.43792 -8.67071,3.49031 -0.80837,0.018 -2.28691,-0.46554 -3.28564,-1.07456 z"
         style="fill:#696969;stroke-width:0.58790874"
         id="path3806" />
      <path
         inkscape:connector-curvature="0"
         d="m 112.93629,113.28784 c -1.45066,-1.45067 -1.51208,-2.28428 -0.29623,-4.02017 1.31242,-1.87373 4.05475,-1.75552 5.35629,0.23089 0.9023,1.37709 0.91712,1.69915 0.14199,3.08652 -1.12198,2.00819 -3.56639,2.33841 -5.20205,0.70276 z m 23.72488,20.62179 c 0.17244,-0.27902 -0.22008,-2.46163 -0.87227,-4.85025 -1.76278,-6.45603 -1.74022,-6.40062 -2.60537,-6.40062 -0.86515,0 -0.84259,-0.0554 -2.60536,6.40062 -0.65219,2.38862 -1.04472,4.57123 -0.87228,4.85025 0.17245,0.27902 1.73738,0.50731 3.47764,0.50731 1.74026,0 3.30519,-0.22829 3.47764,-0.50731 z m -12.81077,10.62054 c -0.43251,-0.69982 5.9007,-22.94961 7.01773,-24.65464 1.69417,-2.58597 5.95919,-2.4591 7.72093,0.22967 1.19805,1.82845 7.88801,23.72441 7.46014,24.41672 -0.16227,0.26255 -1.45093,0.47737 -2.86369,0.47737 h -2.56865 l -1.23826,-3.38047 c -0.68105,-1.85926 -1.35745,-3.72238 -1.50312,-4.14025 -0.19307,-0.55391 -1.50181,-0.71321 -4.83003,-0.58791 l -4.56519,0.17187 -1.21483,3.82086 c -1.13438,3.56785 -2.53767,5.06637 -3.41503,3.64678 z m -11.26138,-0.24689 c -0.1655,-0.43128 -0.22922,-6.33304 -0.1416,-13.11503 l 0.1593,-12.33089 h 2.64559 2.64559 v 12.93399 12.93399 l -2.50399,0.18104 c -1.68122,0.12156 -2.60286,-0.0766 -2.80489,-0.6031 z M 69.587104,133.976 c 0.14358,-0.24251 -0.43924,-2.82196 -1.29516,-5.73211 -1.99221,-6.77356 -2.81687,-6.87918 -4.59019,-0.5879 -1.94462,6.89898 -1.98813,6.76095 2.13154,6.76095 1.92101,0 3.61023,-0.19842 3.75381,-0.44094 z m -12.87089,10.37198 c -0.22139,-0.35822 0.0285,-2.144 0.55527,-3.96838 0.5268,-1.82439 2.00922,-6.99757 3.29428,-11.49595 2.57674,-9.01995 3.75791,-10.92816 6.76448,-10.92816 3.38044,0 4.57871,2.08641 8.23066,14.33113 1.8204,6.1037 3.1645,11.47635 2.98687,11.93922 -0.22677,0.59097 -1.0686,0.78767 -2.82693,0.66054 -2.45566,-0.17755 -2.52669,-0.24348 -3.67981,-3.41544 -1.72723,-4.7512 -1.66351,-4.70237 -6.13575,-4.70237 -4.52262,0 -4.89112,0.25633 -5.91638,4.11536 -0.98603,3.71139 -2.27598,5.07676 -3.27269,3.46405 z m -44.65283,-0.0471 c -0.16482,-0.4295 -0.22977,-9.37692 -0.14435,-19.88316 l 0.15531,-19.10226 h 4.10975 4.10975 l 5.2289,12.78702 c 2.8759,7.03286 5.43178,12.78701 5.67974,12.78701 0.24796,0 2.62606,-5.48959 5.28467,-12.1991 2.65861,-6.70951 5.1077,-12.54134 5.44242,-12.95963 0.40856,-0.51055 1.78563,-0.70378 4.18976,-0.58791 l 3.58117,0.17261 v 19.69495 19.69494 h -3.2335 -3.2335 l -0.15707,-14.8447 c -0.0864,-8.16458 -0.39063,-14.84469 -0.67609,-14.84469 -0.55833,0 -2.26917,3.95634 -8.58023,19.84192 -2.21596,5.57778 -4.32584,10.14142 -4.68863,10.14142 -0.36279,0 -1.65575,-2.44717 -2.87323,-5.43815 -5.67039,-13.9304 -10.05283,-23.95728 -10.47098,-23.95728 -0.25239,0 -0.52966,6.54783 -0.61614,14.55074 l -0.15725,14.55074 -1.32542,0.18821 c -0.72899,0.10352 -1.46027,-0.16319 -1.62508,-0.59268 z m 88.911006,10.91671 c -0.23089,-0.2309 -0.4198,-2.7876 -0.4198,-5.68157 0,-5.19453 -0.0169,-5.25616 -1.322784,-4.82361 -2.051448,0.67952 -6.792662,1.0312 -8.414482,0.62415 -2.03017,-0.50954 -5.99506,-4.22271 -7.35465,-6.88771 -1.47101,-2.88342 -1.57547,-10.2684 -0.18426,-13.02671 1.33422,-2.64531 3.67764,-5.03206 6.22948,-6.34466 2.42437,-1.24704 7.06923,-1.48522 9.685632,-0.49667 2.209224,0.8347 4.888524,3.45226 4.888524,4.77586 0,1.54798 -1.48976,1.30563 -2.88609,-0.46951 -1.823074,-2.31767 -5.123146,-3.27493 -7.651166,-2.21939 -2.91951,1.219 -3.40065,1.75797 -4.48576,5.02492 -1.28174,3.85898 -0.96882,9.93414 0.67651,13.13357 1.46801,2.85464 4.60424,4.76861 6.87851,4.1978 2.283965,-0.57324 3.515466,-2.89234 3.898036,-7.34057 l 0.33646,-3.91213 h 2.05768 2.05768 v 11.75817 11.75818 l -1.78485,0.17483 c -0.98168,0.0962 -1.97377,-0.014 -2.20467,-0.24495 z"
         style="fill:#006400;stroke-width:0.58790874"
         id="path3802" />
      <path
         inkscape:connector-curvature="0"
         d="m 89.077929,103.17006 c 0,-0.32335 0.39684,-0.5879 0.88187,-0.5879 0.48502,0 0.88186,0.26455 0.88186,0.5879 0,0.32335 -0.39684,0.58791 -0.88186,0.58791 -0.48503,0 -0.88187,-0.26456 -0.88187,-0.58791 z m 6.58893,0.70413 c 0.33478,-1.69711 2.05517,-2.22013 3.37471,-1.02596 1.485411,1.34428 1.166191,1.73436 -1.49496,1.82677 -1.52264,0.0529 -2.00741,-0.15365 -1.87975,-0.80081 z m 4.258095,5.81028 c 0.417936,-0.67623 -1.249805,-2.39903 -2.322345,-2.39903 -1.07254,0 -2.74027,1.7228 -2.32234,2.39903 0.18373,0.29728 1.22878,0.54051 2.32234,0.54051 1.09356,0 2.138625,-0.24323 2.322345,-0.54051 z m -5.555845,5.24378 c -0.82743,-0.82743 -1.17582,-1.9597 -1.17582,-3.82141 0,-3.32249 1.47771,-4.99723 4.40932,-4.99723 2.452841,0 4.566881,1.82492 4.298491,3.71059 -0.15682,1.10186 -0.64751,1.32886 -3.416631,1.5806 -3.07956,0.27996 -3.32448,0.46698 -3.02773,2.31201 0.17659,1.09794 2.50409,1.30856 3.95499,0.3579 1.879731,-1.23165 3.034381,-0.59667 1.665521,0.9159 -1.389216,1.53508 -5.147401,1.50238 -6.708141,-0.0584 z m -5.00683,0.48091 c -0.54976,-1.43264 -0.0473,-9.0056 0.59752,-9.0056 0.78745,0 1.10042,8.54129 0.34079,9.30092 -0.403,0.403 -0.70706,0.3073 -0.93831,-0.29532 z m -4.02375,0.28698 c -0.20678,-0.20677 -0.37596,-3.24201 -0.37596,-6.74496 0,-5.26942 0.15225,-6.36902 0.88186,-6.36902 0.73015,0 0.88187,1.10663 0.88187,6.4323 0,5.87951 -0.37663,7.69283 -1.38777,6.68168 z m -4.81457,-6.01167 c 0.195207,-0.44864 -0.159816,-0.90158 -0.419241,-1.24648 -0.473398,-0.54248 -1.077828,-1.09012 -1.827509,-1.15255 -0.881434,0.0613 -1.604748,0.75936 -1.977906,1.52171 -0.34807,0.50488 -0.07623,1.12565 0.5254,1.20471 1.002618,0.27588 2.090182,0.30987 3.098734,0.0452 0.223632,-0.0734 0.464414,-0.1684 0.600522,-0.3726 z m -5.53293,5.13292 c -1.103793,-1.22247 -1.396931,-2.98999 -1.173127,-4.57926 0.184799,-1.33382 0.840168,-2.66229 2.010493,-3.39145 1.521158,-1.0389 3.684253,-1.00953 5.157307,0.10606 1.011507,0.74065 1.613974,1.91878 1.932455,3.10551 0.220409,0.51497 -0.09042,1.02586 -0.656252,1.0511 -1.534245,0.3944 -3.129117,0.22397 -4.691143,0.35784 -0.539529,0.0725 -1.164135,0.0965 -1.569458,0.5069 -0.31466,0.45135 0.06429,0.97926 0.316026,1.3618 0.410937,0.52135 0.793207,1.09741 1.346085,1.47871 0.536051,0.27248 1.089148,-0.13875 1.562314,-0.3659 0.798245,-0.43437 1.624827,-0.94827 2.559968,-0.96813 0.63407,-0.0515 0.582851,0.69818 0.26606,1.0307 -0.647365,1.04805 -1.889447,1.52388 -3.071193,1.60144 -1.413589,0.0898 -2.973156,-0.24684 -3.989535,-1.29532 z m -5.56116,-0.0361 c -0.49801,-2.44458 -0.82049,-8.66468 -0.51065,-9.8495 0.42966,-1.64303 1.50535,-1.45367 2.37459,0.41802 0.49011,1.05532 0.53908,1.77858 0.14698,2.17069 -0.76447,0.76446 -0.76456,6.05345 -1.2e-4,6.52591 1.02998,0.63655 0.63167,2.05768 -0.57671,2.05768 -0.73597,0 -1.2638,-0.48687 -1.43409,-1.3228 z m -7.03932,-6.44862 c -0.58825,-2.94128 -1.38939,-3.28567 -2.34673,-1.00882 -1.00475,2.38959 -0.79022,2.90115 1.21663,2.90115 1.38542,0 1.47767,-0.15448 1.1301,-1.89233 z m -7.05569,7.28331 c -0.35364,-0.5722 3.99616,-12.32958 4.89346,-13.22688 0.38161,-0.38161 0.86808,-0.34121 1.42145,0.11804 1.12875,0.93679 5.81555,12.30687 5.37006,13.02768 -0.66282,1.07248 -1.44294,0.56812 -2.30222,-1.48841 -0.803,-1.92185 -1.03539,-2.05768 -3.52025,-2.05768 -2.34871,0 -2.76511,0.20231 -3.55327,1.72644 -1.01164,1.95631 -1.84896,2.64554 -2.30923,1.90081 z"
         style="fill:#696969;stroke-width:0.58790874"
         id="path3778" />
    </g>
  </g>
</svg>
